<?xml version="1.0" encoding="UTF-8"?>
<!DOCTYPE svg PUBLIC "-//W3C//DTD SVG 1.1//EN" "http://www.w3.org/Graphics/SVG/1.1/DTD/svg11.dtd">
<!-- Creator: CorelDRAW -->
<svg xmlns="http://www.w3.org/2000/svg" xml:space="preserve" width="127mm" height="127mm" style="shape-rendering:geometricPrecision; text-rendering:geometricPrecision; image-rendering:optimizeQuality; fill-rule:evenodd; clip-rule:evenodd"
viewBox="0 0 127 127">
 <defs>
  <style type="text/css">
   <![CDATA[
    .fil1 {fill:#1B3A5B}
    .fil4 {fill:#445C76}
    .fil6 {fill:#5B6A96}
    .fil8 {fill:#63748B}
    .fil5 {fill:#65709C}
    .fil0 {fill:#7C6BA5}
    .fil2 {fill:#8E7FB3}
    .fil3 {fill:#A397C3}
    .fil7 {fill:#1F1A17;fill-rule:nonzero}
   ]]>
  </style>
 </defs>
 <g id="Layer_x0020_1">
  <metadata id="CorelCorpID_0Corel-Layer"/>
  <g id="_197804368">
   <path id="_197804704" class="fil0" d="M84.9059 40.4313l0.0488 39.3791 9.5171 0.0783 0.1072 -4.4234c-0.1643,-15.5699 0.2371,-31.6273 -0.0567,-47.1496l-5.3097 5.2695c-3.9773,4.1213 -4.3042,3.0699 -4.3067,6.8461z"/>
   <path id="_197804560" class="fil1" d="M32.3738 79.8733c2.7641,0.0472 6.0371,0.5781 7.5706,-0.9583 2.678,-2.6826 2.1165,-1.8148 2.1066,-6.6028l-0.0033 -26.6258c0.0012,-2.3735 0.6976,-6.9181 -0.6025,-8.4462l-9.0375 -8.7512 -0.0339 51.3843z"/>
   <path id="_197804584" class="fil2" d="M71.8439 54.795l-0.0053 25.0701 9.5336 -0.0609 0.0571 -35.9678c-1.6572,0.7344 -5.8596,5.4462 -7.8967,7.3682 -1.3701,1.2931 -1.6862,1.2811 -1.6887,3.5904z"/>
   <path id="_197804656" class="fil3" d="M58.8341 79.7943l9.4831 0.0584 0.0538 -25.1843c-1.2806,0.6013 -3.7,3.367 -4.4275,4.0845 -6.2883,6.2043 -5.1499,3.5859 -5.1508,12.1579 -0.0004,2.8952 -0.1005,6.018 0.0414,8.8835z"/>
   <path id="_197804080" class="fil4" d="M45.5201 71.0622c1.3357,-0.7059 5.0048,-4.6733 6.2461,-5.9014 3.6608,-3.6215 3.3447,-1.8989 3.3505,-8.6138 0.0066,-6.8725 0.4477,-5.1082 -3.2023,-8.7549 -1.5017,-1.4999 -4.778,-5.1003 -6.3293,-6.0003l-0.065 29.2704z"/>
   <path id="_197804416" class="fil5" d="M63.478 36.987c1.2977,-0.7838 7.5334,-7.0745 8.7338,-8.7322l-17.3434 -0.0509c0.5855,1.4322 7.6856,8.2191 8.6096,8.7831z"/>
   <path id="_197804176" class="fil6" d="M42.9344 79.8551l12.2989 0.0216 0.0878 -12.3855c-1.6171,1.1197 -11.4834,10.9236 -12.3867,12.3639z"/>
   <path id="_197804128" class="fil7" d="M26.6766 98.6524l-2.9684 -8.5927 1.8151 0 2.1074 6.3607 2.0222 -6.3607 1.785 0 -2.9515 8.5927 -1.8098 0zm8.8265 0l0 -8.5927 2.686 0c1.0184,0 1.6803,0.0419 1.9896,0.1281 0.4753,0.13 0.8732,0.4101 1.1932,0.8421 0.321,0.432 0.4812,0.9901 0.4812,1.6739 0,0.5279 -0.0926,0.9702 -0.2762,1.3301 -0.185,0.3604 -0.4188,0.6424 -0.7028,0.8484 -0.2839,0.2041 -0.5737,0.34 -0.8674,0.4057 -0.3993,0.0823 -0.9769,0.1242 -1.7343,0.1242l-1.089 0 0 3.2402 -1.6803 0zm1.6803 -7.1404l0 2.4479 0.9132 0c0.659,0 1.0973,-0.0458 1.3194,-0.1359 0.2221,-0.0901 0.3959,-0.2299 0.5211,-0.4242 0.1256,-0.1919 0.1899,-0.414 0.1899,-0.6697 0,-0.3141 -0.0891,-0.5723 -0.2649,-0.7763 -0.1778,-0.2041 -0.3999,-0.3322 -0.6721,-0.3838 -0.1987,-0.038 -0.5986,-0.058 -1.2015,-0.058l-0.8051 0zm6.049 7.1404l0 -8.5927 3.5285 0c0.8864,0 1.5317,0.0779 1.9335,0.2318 0.4033,0.1544 0.7243,0.4281 0.9653,0.8221 0.2416,0.396 0.3629,0.8465 0.3629,1.3545 0,0.6458 -0.1812,1.1781 -0.5465,1.5979 -0.3648,0.4199 -0.9093,0.6843 -1.6354,0.7939 0.3614,0.2182 0.6584,0.4583 0.8922,0.7203 0.2353,0.262 0.5523,0.7281 0.9502,1.3959l1.0121 1.6763 -2.0027 0 -1.2015 -1.876c-0.4306,-0.6663 -0.7262,-1.0861 -0.8864,-1.2605 -0.1583,-0.1719 -0.3268,-0.2917 -0.5046,-0.356 -0.1787,-0.0638 -0.4612,-0.0959 -0.8474,-0.0959l-0.34 0 0 3.5884 -1.6802 0zm1.6802 -4.9565l1.24 0c0.8036,0 1.3033,-0.0361 1.5045,-0.1057 0.1992,-0.0701 0.357,-0.1924 0.4695,-0.3643 0.1139,-0.1719 0.1699,-0.3882 0.1699,-0.6458 0,-0.2903 -0.0754,-0.5221 -0.224,-0.7023 -0.149,-0.1778 -0.3594,-0.2898 -0.6297,-0.3361 -0.1374,-0.0199 -0.5445,-0.0297 -1.2225,-0.0297l-1.3077 0 0 2.1839zm6.6305 4.9565l0 -8.5927 1.6803 0 0 8.5927 -1.6803 0zm3.2773 0l0 -8.5927 1.6262 0 3.4146 5.7587 0 -5.7587 1.5531 0 0 8.5927 -1.6788 0 -3.362 -5.6486 0 5.6486 -1.5531 0zm10.234 0l0 -7.1404 -2.4566 0 0 -1.4523 6.5818 0 0 1.4523 -2.4449 0 0 7.1404 -1.6803 0zm10.2978 0l0 -7.1404 -2.4566 0 0 -1.4523 6.5823 0 0 1.4523 -2.4449 0 0 7.1404 -1.6808 0zm5.2132 0l0 -8.5927 6.1415 0 0 1.4523 -4.4612 0 0 1.9082 4.1481 0 0 1.4519 -4.1481 0 0 2.328 4.6234 0 0 1.4523 -6.3037 0zm13.0365 -3.1681l1.6223 0.5157c-0.2494,0.9464 -0.6643,1.6482 -1.2439,2.1084 -0.5791,0.4578 -1.313,0.6882 -2.2038,0.6882 -1.1027,0 -2.0086,-0.3901 -2.7191,-1.1703 -0.7087,-0.7798 -1.0642,-1.8459 -1.0642,-3.2003 0,-1.43 0.3575,-2.5424 1.07,-3.3343 0.713,-0.7919 1.6515,-1.1879 2.8141,-1.1879 1.0159,0 1.8405,0.3117 2.4741,0.9342 0.3784,0.3677 0.6604,0.8956 0.8499,1.5858l-1.6574 0.4081c-0.0984,-0.4442 -0.3034,-0.7958 -0.6141,-1.0539 -0.3127,-0.2582 -0.6911,-0.3863 -1.1358,-0.3863 -0.6161,0 -1.1158,0.228 -1.4986,0.6863 -0.3843,0.4558 -0.5752,1.1961 -0.5752,2.2199 0,1.0841 0.189,1.8585 0.5659,2.3182 0.3785,0.4622 0.8689,0.6921 1.4733,0.6921 0.4461,0 0.8304,-0.1461 1.1509,-0.4398 0.3209,-0.2941 0.5528,-0.7544 0.6916,-1.3841zm3.0615 3.1681l0 -8.5927 1.6802 0 0 3.3844 3.2675 0 0 -3.3844 1.6803 0 0 8.5927 -1.6803 0 0 -3.7565 -3.2675 0 0 3.7565 -1.6802 0z"/>
   <polygon id="_197804272" class="fil8" points="62.0384,54.9903 58.6151,51.711 58.6438,58.5293 "/>
  </g>
 </g>
</svg>
